<svg width="37" height="37" viewBox="0 0 37 37" fill="none" xmlns="http://www.w3.org/2000/svg">
<path d="M8.2195 7.74998C10.9607 5.53548 14.743 4.16665 18.5001 4.16665C21.3349 4.16665 24.1062 5.00728 26.4633 6.58225C28.8204 8.15722 30.6575 10.3958 31.7424 13.0149C32.8272 15.6339 33.1111 18.5159 32.558 21.2963C32.0049 24.0767 30.6398 26.6306 28.6353 28.6352C26.6307 30.6397 24.0768 32.0048 21.2964 32.5579C18.516 33.111 15.634 32.8271 13.015 31.7423C10.3959 30.6574 8.15732 28.8203 6.58235 26.4632C5.00739 24.106 4.16675 21.3348 4.16675 18.5C4.16675 18.0248 3.97799 17.5691 3.64198 17.2331C3.30598 16.8971 2.85026 16.7083 2.37508 16.7083C1.8999 16.7083 1.44418 16.8971 1.10818 17.2331C0.772179 17.5691 0.583416 18.0248 0.583416 18.5C0.583416 28.3954 8.60471 36.4166 18.5001 36.4166C28.3955 36.4166 36.4167 28.3954 36.4167 18.5C36.4167 8.6046 28.3955 0.583313 18.5001 0.583313C13.9331 0.583313 9.35004 2.22448 5.95842 4.9711V2.37498C5.95842 1.8998 5.76965 1.44408 5.43365 1.10808C5.09765 0.772077 4.64193 0.583313 4.16675 0.583313C3.69157 0.583313 3.23585 0.772077 2.89985 1.10808C2.56385 1.44408 2.37508 1.8998 2.37508 2.37498V9.54165C2.37508 10.0168 2.56385 10.4725 2.89985 10.8085C3.23585 11.1445 3.69157 11.3333 4.16675 11.3333H11.3334C11.8086 11.3333 12.2643 11.1445 12.6003 10.8085C12.9363 10.4725 13.1251 10.0168 13.1251 9.54165C13.1251 9.06647 12.9363 8.61075 12.6003 8.27475C12.2643 7.93874 11.8086 7.74998 11.3334 7.74998H8.2195Z" fill="white"/>
</svg>
